<svg width="226" height="48" viewBox="0 0 226 48" fill="none" xmlns="http://www.w3.org/2000/svg">
<path d="M63.1709 9.3667C61.1006 9.3667 59.1855 9.73763 57.4258 10.4795C55.6833 11.2041 54.1737 12.2565 52.897 13.6367C51.6375 14.9997 50.6541 16.6559 49.9468 18.6055C49.2394 20.5378 48.8857 22.703 48.8857 25.1011C48.8857 27.5164 49.2653 29.6989 50.0244 31.6484C50.8008 33.5807 51.8532 35.2284 53.1816 36.5913C54.5273 37.9543 56.106 39.0067 57.9175 39.7485C59.729 40.4731 61.6699 40.8354 63.7402 40.8354C65.2412 40.8354 66.5955 40.637 67.8032 40.2402C69.0109 39.8262 70.0978 39.2396 71.064 38.4805V26.4468H64.5684V24.4023H76.835V39.4897C75.8343 40.0246 74.825 40.499 73.8071 40.9131C72.7892 41.3271 71.6851 41.6722 70.4946 41.9482C69.3215 42.2243 68.0275 42.4313 66.6128 42.5693C65.1981 42.7246 63.5936 42.8022 61.7993 42.8022C59.9015 42.8022 58.0986 42.5866 56.3906 42.1553C54.6826 41.7412 53.0954 41.146 51.6289 40.3696C50.1797 39.5933 48.8685 38.6702 47.6953 37.6006C46.5221 36.5137 45.5215 35.3146 44.6934 34.0034C43.8825 32.6922 43.2528 31.2861 42.8042 29.7852C42.3556 28.2842 42.1313 26.7228 42.1313 25.1011C42.1313 23.4966 42.3384 21.9352 42.7524 20.417C43.1838 18.8815 43.7962 17.4409 44.5898 16.0952C45.3835 14.7323 46.3496 13.4901 47.4883 12.3687C48.627 11.2472 49.9123 10.2811 51.3442 9.47021C52.7762 8.65934 54.3376 8.02962 56.0283 7.58105C57.7191 7.13249 59.5133 6.9082 61.4111 6.9082C63.2227 6.9082 64.8962 7.15837 66.4316 7.65869C67.9844 8.14176 69.3905 8.78874 70.6499 9.59961C71.9266 10.4105 73.0566 11.3507 74.04 12.4204C75.0234 13.4728 75.8688 14.577 76.5762 15.7329L74.0918 17.3892C72.6426 14.6115 71.0295 12.5843 69.2524 11.3076C67.4927 10.0137 65.4655 9.3667 63.1709 9.3667ZM85.6338 7.68457H91.4048V42H85.6338V7.68457ZM100.747 7.68457H112.651C114.704 7.68457 116.507 7.90885 118.06 8.35742C119.613 8.78874 120.907 9.4012 121.942 10.1948C122.977 10.9884 123.753 11.9373 124.271 13.0415C124.806 14.1284 125.073 15.3188 125.073 16.6128C125.073 17.6825 124.866 18.6831 124.452 19.6147C124.055 20.5464 123.486 21.3918 122.744 22.1509C122.02 22.8927 121.14 23.5397 120.104 24.0918C119.069 24.6266 117.931 25.0493 116.688 25.3599L129.188 42H122.485L110.555 25.8774H106.518V42H100.747V7.68457ZM106.518 24.1436H109.856C111.15 24.1436 112.341 23.971 113.428 23.626C114.532 23.2809 115.481 22.7979 116.274 22.1768C117.085 21.5384 117.715 20.7707 118.164 19.8735C118.612 18.9764 118.836 17.9671 118.836 16.8457C118.836 15.8105 118.655 14.8617 118.293 13.999C117.948 13.1364 117.448 12.4032 116.792 11.7993C116.154 11.1782 115.386 10.6951 114.489 10.3501C113.609 10.005 112.643 9.83252 111.59 9.83252H106.518V24.1436ZM133.872 7.68457H139.643V39.7744H156.93V42H133.872V7.68457ZM160.217 7.68457L172.121 25.0752L183.974 7.68457H187.105L173.803 27.1714V42H168.032V27.7148L154.316 7.68457H160.217ZM191.893 7.68457H195.127L217.616 32.7871H217.875V7.68457H220.411V42.8022H219.065L194.713 14.9048H194.506V42H191.893V7.68457Z" fill="white"/>
<rect x="28" y="4" width="5" height="40" fill="#75C873"/>
<rect y="35" width="5" height="9" fill="#75C873"/>
<rect x="7" y="27" width="5" height="17" fill="#75C873"/>
<rect x="14" y="19" width="5" height="25" fill="#75C873"/>
<rect x="21" y="11" width="5" height="33" fill="#75C873"/>
</svg>
